# xmcd CD database file
#
# Track frame offsets:
#	150
#	11758
#	32486
#	46845
#	65666
#	78645
#	93401
#	110005
#	124313
#	142366
#
# Disc length: 2117 seconds
#
# Revision: 0
# Processed by: cddbd v1.5.1PL0 Copyright (c) Steve Scherf et al.
# Submitted via: CDex 1.40Beta5
#
DISCID=8f08430a
DTITLE=Various Artist - MusikExpress No 093
DYEAR=1900
DGENRE=Blues
TTITLE0=Adam Green-Jessica   
TTITLE1=American Music Club-Your Horseshoe   
TTITLE2=The Faint-Birth   
TTITLE3=Secret Machines-Nowhere Again
TTITLE4=The 5.6.7.8's-Teenage Mojo Workout
TTITLE5=The Roots-Web
TTITLE6=Dogs Die In Hot Cars-Pastimes and Lifestyles 
TTITLE7=The Killers-Change Your Mind
TTITLE8=The Stills-Fevered
TTITLE9=Embrace-The Shot's Still Ringing
EXTD=ID3G:   0
EXTT0=
EXTT1=
EXTT2=
EXTT3=
EXTT4=
EXTT5=
EXTT6=
EXTT7=
EXTT8=
EXTT9=
PLAYORDER=
